<?xml version="1.0"?>
<svg xmlns="http://www.w3.org/2000/svg" id="Outline" viewBox="0 0 512 512" width="512" height="512"><path d="M444.092,126.146C419.771,97.777,380.514,87.635,327.4,95.994c-5.508-.072-47.72-1.1-75.826-15.149a7.98,7.98,0,0,0-1.048-.435c-1.081-.358-26.173-8.409-59.406,7.128C178.2,84.592,127.938,76.1,83.89,109.322,38.842,143.3,16,208.8,16,304a195.827,195.827,0,0,0,9.384,54.448c12.492,38.865,35.787,66.827,67.367,80.863A8,8,0,0,0,102.4,436.8l24-32a8,8,0,0,0-1.6-11.2c-.148-.111-14.863-11.279-26.912-31.67C82.664,336.168,78.775,308.353,86.3,279.182l41.7-5.958V304a8,8,0,0,0,7.436,7.98c.676.046,14.328.93,32.564-3.883v60.916A32.056,32.056,0,0,0,144,400v24a8,8,0,0,0,8,8h88a8,8,0,0,0,8-8V318.716c16.464,8.143,48.488,16.812,99.987,2.755,5.182,9.258,15.888,26.484,28.013,35.016V368a32.036,32.036,0,0,0-32,32v24a8,8,0,0,0,8,8h88a8,8,0,0,0,7.977-7.387l7.929-103.085a393.389,393.389,0,0,0,14.365-72.548q1.578-15.9,1.558-30.26C476.525,239.925,480,269.849,480,312a8,8,0,0,0,16,0c0-95.822-17.321-134.967-32.534-150.857A104.417,104.417,0,0,0,444.092,126.146Zm-3.706,191.4a7.965,7.965,0,0,0-.363,1.841L432.592,416H360V400a16.019,16.019,0,0,1,16-16h8a8,8,0,0,0,8-8V352a8,8,0,0,0-4.422-7.155c-9.889-4.945-22.682-24.966-28.423-36.423a7.991,7.991,0,0,0-9.454-4.084c-21.369,6.41-52.648,12.531-80.308,5.292-16.278-4.262-23.72-11.274-23.736-11.287A8,8,0,0,0,232,304V416H160V400a16.019,16.019,0,0,1,16-16,8,8,0,0,0,8-8V302.674c53.061-21.636,72.158-58.89,78.783-86.766,7.361-30.971,1.253-56.722.989-57.8a8,8,0,0,0-3.8-5.05L211.4,125.3a23.947,23.947,0,0,0-22.641-.629l-24.341,12.171a8,8,0,0,0,7.156,14.31l24.339-12.17a7.988,7.988,0,0,1,7.549.209l45.381,25.933a123.153,123.153,0,0,1-1.776,47.685c-8.771,36.016-33.62,61.889-73.856,76.9A106.342,106.342,0,0,1,144,295.891V232a8,8,0,0,0-16,0v25.062L78.869,264.08a8,8,0,0,0-6.531,5.621c-13.23,44.1-.9,78.921,11.774,100.369a140.806,140.806,0,0,0,25,31.118L93.55,421.934c-24.6-12.9-42.343-35.727-52.8-67.958A183.151,183.151,0,0,1,32,304c0-48.995,6.307-90,18.744-121.867,10.16-26.033,24.5-46.192,42.617-59.913C116.6,104.621,142.4,100.5,161.472,100.5a117.267,117.267,0,0,1,28.331,3.189,7.984,7.984,0,0,0,5.775-.537c26.438-13.219,46.288-8.577,49.47-7.689C278.329,111.812,325.976,112,328,112a7.874,7.874,0,0,0,1.264-.1c47.565-7.607,82.111.68,102.666,24.643C479.882,192.441,440.8,316.257,440.386,317.546Z"/><circle cx="120" cy="184" r="8"/></svg>
